Coordinates
version=1
nRows=65
nColumns=12
inDegrees=yes

Units are S.I. units (second, meters, Newtons, ...)
Angles are in degrees

endheader
time	SC_y	SC_z	SC_x	AC_y	AC_z	AC_x	GH_y	GH_z	GH_yy	EL_x	PS_y
       0.0              -24.24         -1.906          54.58          68.22          6.908          -13.8          162.9          7.272         -109.6          132.6          111.6
   0.02867              -24.24         -1.903          54.58          68.22          6.905          -13.8          162.9          7.281         -109.6          132.6          111.5
   0.05734              -24.24           -1.9          54.58          68.21          6.902          -13.8          162.9          7.292         -109.6          132.6          111.5
   0.08601              -24.25         -1.897          54.59          68.21          6.898          -13.8          162.8          7.302         -109.5          132.6          111.5
    0.1147              -24.25         -1.894          54.59          68.21          6.895          -13.8          162.8          7.314         -109.5          132.6          111.5
    0.1433              -24.25         -1.891          54.59           68.2          6.891          -13.8          162.8          7.326         -109.5          132.6          111.5
     0.172              -24.26         -1.887           54.6           68.2          6.887         -13.79          162.7          7.339         -109.5          132.6          111.5
    0.2007              -24.26         -1.883           54.6           68.2          6.882         -13.79          162.7          7.353         -109.5          132.6          111.4
    0.2294              -24.26         -1.879          54.61          68.19          6.877         -13.79          162.7          7.368         -109.5          132.6          111.4
     0.258              -24.27         -1.875          54.61          68.19          6.872         -13.79          162.7          7.385         -109.5          132.5          111.4
    0.2867              -24.27          -1.87          54.62          68.18          6.867         -13.79          162.6          7.402         -109.5          132.5          111.4
    0.3154              -24.28         -1.865          54.62          68.18          6.861         -13.79          162.6          7.421         -109.5          132.5          111.3
     0.344              -24.29         -1.859          54.63          68.17          6.855         -13.79          162.5          7.441         -109.5          132.5          111.3
    0.3727              -24.29         -1.853          54.64          68.17          6.848         -13.79          162.5          7.462         -109.5          132.5          111.3
    0.4014               -24.3         -1.847          54.64          68.16           6.84         -13.79          162.4          7.486         -109.5          132.5          111.3
      0.43              -24.31          -1.84          54.65          68.15          6.832         -13.78          162.4          7.512         -109.4          132.5          111.2
    0.4587              -24.31         -1.832          54.66          68.15          6.824         -13.78          162.3          7.539         -109.4          132.5          111.2
    0.4874              -24.32         -1.824          54.67          68.14          6.814         -13.78          162.2          7.569         -109.4          132.4          111.1
    0.5161              -24.33         -1.814          54.68          68.13          6.804         -13.78          162.2          7.602         -109.4          132.4          111.1
    0.5447              -24.34         -1.805          54.69          68.12          6.792         -13.78          162.1          7.639         -109.4          132.4          111.0
    0.5734              -24.35         -1.794           54.7          68.11           6.78         -13.77          162.0          7.678         -109.4          132.4          111.0
    0.6021              -24.37         -1.781          54.72           68.1          6.766         -13.77          161.9          7.722         -109.3          132.4          110.9
    0.6307              -24.38         -1.768          54.73          68.09          6.751         -13.77          161.8           7.77         -109.3          132.3          110.9
    0.6594              -24.39         -1.753          54.75          68.07          6.734         -13.76          161.7          7.823         -109.3          132.3          110.8
    0.6881              -24.41         -1.737          54.77          68.05          6.716         -13.76          161.6          7.883         -109.3          132.3          110.7
    0.7167              -24.43         -1.719          54.79          68.04          6.695         -13.76          161.4          7.949         -109.2          132.2          110.6
    0.7454              -24.45         -1.698          54.81          68.02          6.671         -13.75          161.3          8.023         -109.2          132.2          110.5
    0.7741              -24.48         -1.675          54.84          67.99          6.645         -13.75          161.1          8.107         -109.1          132.1          110.4
    0.8028               -24.5         -1.649          54.87          67.97          6.616         -13.74          160.9          8.201         -109.1          132.1          110.3
    0.8314              -24.53         -1.619           54.9          67.94          6.582         -13.73          160.6          8.308         -109.0          132.0          110.1
    0.8601              -24.57         -1.586          54.94          67.91          6.543         -13.73          160.4           8.43         -109.0          131.9          109.9
    0.8888              -24.61         -1.547          54.98          67.87          6.499         -13.72          160.1           8.57         -108.9          131.9          109.7
    0.9174              -24.65         -1.502          55.03          67.83          6.448         -13.71          159.7          8.732         -108.8          131.8          109.5
    0.9461              -24.71          -1.45          55.09          67.78          6.389         -13.69          159.3          8.921         -108.7          131.6          109.2
    0.9748              -24.77         -1.389          55.16          67.72           6.32         -13.68          158.8          9.141         -108.6          131.5          108.9
     1.003              -24.84         -1.317          55.24          67.65          6.238         -13.66          158.3            9.4         -108.5          131.4          108.6
     1.032              -24.93         -1.232          55.33          67.56          6.141         -13.64          157.6          9.709         -108.3          131.2          108.1
     1.061              -25.04          -1.13          55.45          67.46          6.025         -13.62          156.8          10.08         -108.1          131.0          107.6
     1.089              -25.16         -1.006          55.59          67.34          5.885         -13.59          155.8          10.53         -107.9          130.7          107.0
     1.118              -25.32        -0.8551          55.76           67.2          5.713         -13.56          154.6          11.07         -107.6          130.4          106.2
     1.147              -25.51        -0.6687          55.97          67.01          5.501         -13.52          153.2          11.75         -107.3          130.0          105.3
     1.175              -25.75        -0.4362          56.23          66.79          5.236         -13.46          151.3          12.59         -106.9          129.5          104.1
     1.204              -26.05        -0.1433          56.55           66.5          4.903          -13.4          149.0          13.65         -106.3          128.9          102.6
     1.233              -26.44         0.2291          56.97          66.14           4.48         -13.31          146.1          14.99         -105.6          128.1          100.7
     1.261              -26.93         0.7056          57.51          65.68          3.938          -13.2          142.3          16.72         -104.8          127.1          98.31
      1.29              -27.56          1.317          58.19          65.08          3.242         -13.06          137.5          18.93         -103.6          125.8          95.21
     1.319              -28.37          2.098          59.07          64.32          2.354         -12.88          131.4          21.75         -102.2          124.1          91.25
     1.347              -29.38          3.081          60.17          63.36          1.236         -12.66          123.6          25.31         -100.4          122.0          86.26
     1.376              -30.61          4.278          61.51           62.2        -0.1251         -12.38          114.2          29.64          -98.2          119.5          80.19
     1.405              -32.04          5.665          63.07          60.85         -1.703         -12.07          103.3          34.65         -95.65          116.6          73.15
     1.433              -33.59          7.168          64.75          59.38         -3.412         -11.72          91.47          40.09         -92.88          113.4          65.53
     1.462              -35.14           8.67          66.44          57.92         -5.121         -11.38          79.65          45.52         -90.12          110.2          57.91
     1.491              -36.57          10.06          67.99          56.57         -6.699         -11.06          68.73          50.54         -87.57          107.2          50.87
      1.52              -37.81          11.25          69.33           55.4          -8.06         -10.79           59.3          54.87         -85.37          104.7           44.8
     1.548              -38.82          12.24          70.43          54.45         -9.177         -10.56          51.57          58.42         -83.56          102.6          39.82
     1.577              -39.63          13.02          71.31          53.69         -10.07         -10.38          45.42          61.25         -82.13          101.0          35.86
     1.606              -40.26          13.63           72.0          53.09         -10.76         -10.24          40.61          63.46          -81.0          99.65          32.76
     1.634              -40.75          14.11          72.53          52.63          -11.3         -10.13          36.86          65.18         -80.13          98.64          30.34
     1.663              -41.13          14.48          72.95          52.27         -11.73         -10.05          33.93          66.53         -79.44          97.85          28.45
     1.692              -41.43          14.77          73.28          51.98         -12.06          -9.98          31.62          67.59          -78.9          97.23          26.96
      1.72              -41.67           15.0          73.54          51.75         -12.32         -9.927          29.79          68.43         -78.48          96.74          25.78
     1.749              -41.87          15.19          73.75          51.57         -12.54         -9.884          28.32           69.1         -78.13          96.34          24.84
     1.778              -42.02          15.34          73.91          51.42         -12.71          -9.85          27.13          69.65         -77.86          96.02          24.07
     1.806              -42.15          15.47          74.05           51.3         -12.85         -9.821          26.16           70.1         -77.63          95.76          23.44
     1.835              -42.25          15.57          74.17           51.2         -12.97         -9.798          25.36          70.47         -77.44          95.54          22.93
